# xmcd
#
# Track frame offsets: 
#        150
#        14472
#        23869
#        37493
#        44689
#        58810
#        70358
#        83893
#        95900
#        108018
#        124361
#        154150
#        169801
#        187835
#        200140
#
# Disc length: 2726 seconds
#
# Revision: 0
# Processed by: cddbd v1.5.2PL0 Copyright (c) Steve Scherf et al.
# Submitted via: ExactAudioCopyFreeDBPlugin 1.0
#
DISCID=df0aa40f
DTITLE=Peter Henisch - blues plus
DYEAR=2018
DGENRE=Blues
TTITLE0=Hallo Welt
TTITLE1=Sie tragt Wind in die Haar
TTITLE2=Immer wann I ham kumm
TTITLE3=I huck in meim Zimmer
TTITLE4=Skyline
TTITLE5=Vogelweide-Blues
TTITLE6=34eer-Blues
TTITLE7=Wenn der Ultimo da is
TTITLE8=Kumm und lass di falln mit mir
TTITLE9=Hollerba-Nlues
TTITLE10=Polvere di Gesso - Kreidestaub
TTITLE11=Lenau-Blues
TTITLE12=Mutschila Ferdl
TTITLE13=Dancing Stars
TTITLE14=I sitz im Café
EXTD=
EXTT0=
EXTT1=
EXTT2=
EXTT3=
EXTT4=
EXTT5=
EXTT6=
EXTT7=
EXTT8=
EXTT9=
EXTT10=
EXTT11=
EXTT12=
EXTT13=
EXTT14=
PLAYORDER=
